<?xml version="1.0" encoding="UTF-8" standalone="no"?>
<!-- Created with Inkscape (http://www.inkscape.org/) -->

<svg
   width="295.01041mm"
   height="87.57708mm"
   viewBox="0 0 295.01041 87.57708"
   version="1.1"
   id="svg5"
   xml:space="preserve"
   inkscape:version="1.2.2 (1:1.2.2+202212051552+b0a8486541)"
   sodipodi:docname="logo_iriss_evolution.svg"
   xmlns:inkscape="http://www.inkscape.org/namespaces/inkscape"
   xmlns:sodipodi="http://sodipodi.sourceforge.net/DTD/sodipodi-0.dtd"
   xmlns="http://www.w3.org/2000/svg"
   xmlns:svg="http://www.w3.org/2000/svg"><sodipodi:namedview
     id="namedview7"
     pagecolor="#ffffff"
     bordercolor="#000000"
     borderopacity="0.25"
     inkscape:showpageshadow="2"
     inkscape:pageopacity="0.0"
     inkscape:pagecheckerboard="0"
     inkscape:deskcolor="#d1d1d1"
     inkscape:document-units="mm"
     showgrid="false"
     inkscape:zoom="1"
     inkscape:cx="658.5"
     inkscape:cy="216"
     inkscape:window-width="1920"
     inkscape:window-height="1007"
     inkscape:window-x="0"
     inkscape:window-y="0"
     inkscape:window-maximized="1"
     inkscape:current-layer="g179" /><defs
     id="defs2" /><g
     inkscape:label="Layer 1"
     inkscape:groupmode="layer"
     id="layer1"
     transform="translate(-53.615582,-104.1048)"><g
       id="g179"><path
         style="fill:#f8f8f8;stroke-width:0.264583"
         d="m 337.0946,154.77254 c 2.7e-4,-2.76489 0.0395,-3.86004 0.0871,-2.43365 0.0477,1.42639 0.0475,3.68857 0,5.02708 -0.0479,1.33851 -0.0869,0.17147 -0.0867,-2.59343 z"
         id="path317" /><path
         style="fill:#f6f6f6;stroke-width:0.264583"
         d="m 155.06904,151.33296 c 1e-4,-4.65667 0.0361,-6.5244 0.08,-4.15053 0.0439,2.37388 0.0438,6.18388 -1.9e-4,8.46667 -0.044,2.28279 -0.0799,0.34053 -0.0798,-4.31614 z m 111.38271,-3.175 c -2.3e-4,-2.91042 0.0384,-4.13714 0.0859,-2.72605 0.0475,1.41108 0.0477,3.79233 5.3e-4,5.29166 -0.0472,1.49933 -0.0861,0.34481 -0.0863,-2.56561 z"
         id="path315" /><path
         id="path313"
         style="fill:#eef7fd;stroke-width:0.264583"
         d="m 77.957249,128.71109 c -0.01366,-0.0137 -0.120909,0.0664 -0.330729,0.23099 -0.254661,0.19972 -0.463021,0.40812 -0.463021,0.46302 0,0.21776 0.217112,0.0774 0.562756,-0.36328 0.164551,-0.20983 0.244651,-0.31708 0.230994,-0.33073 z m -1.322917,1.32291 c -0.01366,-0.0137 -0.120907,0.0664 -0.330729,0.231 -0.254661,0.19972 -0.463021,0.40812 -0.463021,0.46302 0,0.21776 0.217115,0.0774 0.562756,-0.36329 0.164552,-0.20982 0.244651,-0.31707 0.230994,-0.33073 z m 0.529167,11.37709 c -0.01366,-0.0137 -0.120908,0.0664 -0.33073,0.23099 -0.254659,0.19972 -0.46302,0.40812 -0.46302,0.46302 0,0.21776 0.217112,0.0774 0.562756,-0.36328 0.164551,-0.20983 0.244651,-0.31708 0.230994,-0.33073 z m 33.551961,21.16666 c -0.0728,0 -0.34795,0.23813 -0.61134,0.52917 -0.2634,0.29104 -0.41955,0.52917 -0.34675,0.52917 0.0728,0 0.34795,-0.23813 0.61134,-0.52917 0.26339,-0.29104 0.41955,-0.52917 0.34675,-0.52917 z m -37.520711,1.5875 c -0.01366,0.0137 0.06644,0.12091 0.230993,0.33073 0.345643,0.44073 0.562757,0.58105 0.562757,0.36329 0,-0.0549 -0.208359,-0.26329 -0.463021,-0.46302 -0.20982,-0.16455 -0.317073,-0.24465 -0.330729,-0.231 z m 1.852083,1.85209 c -0.01366,0.0136 0.06644,0.12091 0.230994,0.33073 0.345641,0.44073 0.562756,0.58104 0.562756,0.36328 0,-0.0549 -0.20836,-0.2633 -0.463021,-0.46302 -0.209824,-0.16455 -0.317072,-0.24465 -0.330729,-0.23099 z m 30.956248,0.52916 c -0.0136,0.0137 0.0665,0.12091 0.231,0.33073 0.34565,0.44073 0.56275,0.58105 0.56275,0.36329 0,-0.0549 -0.20836,-0.2633 -0.46302,-0.46302 -0.20982,-0.16455 -0.31707,-0.24465 -0.33073,-0.231 z" /><path
         style="fill:#f4f4f4;stroke-width:0.264583"
         d="m 195.26772,181.89233 c 0,-1.67349 0.043,-2.35809 0.0955,-1.52135 0.0525,0.83674 0.0525,2.20596 0,3.04271 -0.0525,0.83674 -0.0955,0.15213 -0.0955,-1.52136 z m 48.91904,-10.23752 c 0.25743,-0.0671 0.61462,-0.0627 0.79375,0.01 0.17913,0.0725 -0.0315,0.12736 -0.46806,0.12197 -0.43656,-0.005 -0.58312,-0.0647 -0.32569,-0.13177 z m 70.90833,0 c 0.25743,-0.0671 0.61462,-0.0627 0.79375,0.01 0.17913,0.0725 -0.0315,0.12736 -0.46806,0.12197 -0.43656,-0.005 -0.58312,-0.0647 -0.32569,-0.13177 z m -29.90295,-26.99365 c 0.40018,-0.0606 1.05503,-0.0606 1.45521,0 0.40018,0.0606 0.0728,0.11022 -0.72761,0.11022 -0.80036,0 -1.12778,-0.0496 -0.7276,-0.11022 z m 7.27604,-0.002 c 0.47294,-0.0587 1.24685,-0.0587 1.71979,0 0.47295,0.0587 0.086,0.10671 -0.85989,0.10671 -0.94589,0 -1.33284,-0.048 -0.8599,-0.10671 z m -160.3375,-7.67525 c 0.61847,-0.0557 1.6305,-0.0557 2.24896,0 0.61847,0.0557 0.11245,0.10128 -1.12448,0.10128 -1.23692,0 -1.74294,-0.0456 -1.12448,-0.10128 z m 75.95059,-0.004 c 1.79098,-0.0458 4.64848,-0.0457 6.35,2.7e-4 1.70153,0.046 0.23618,0.0835 -3.25632,0.0833 -3.4925,-1.8e-4 -4.88465,-0.0378 -3.09368,-0.0837 z"
         id="path311" /><path
         style="fill:#ceeafa;stroke-width:0.264583"
         d="m 112.22079,165.48817 c 0.56839,-0.58209 1.09297,-1.05834 1.16573,-1.05834 0.0728,0 -0.33276,0.47625 -0.90115,1.05834 -0.56839,0.58208 -1.09296,1.05833 -1.16573,1.05833 -0.0728,0 0.33276,-0.47625 0.90115,-1.05833 z m -37.860555,-0.0662 -0.504028,-0.59531 0.595312,0.50403 c 0.559447,0.47366 0.715762,0.68659 0.504028,0.68659 -0.05021,0 -0.318097,-0.26789 -0.595312,-0.59531 z m 2.259853,-2.24896 -0.911798,-0.99218 0.992187,0.9118 c 0.545703,0.50148 0.992188,0.94797 0.992188,0.99218 0,0.20204 -0.223895,0.0117 -1.072577,-0.9118 z"
         id="path299" /><path
         style="fill:#bfe4f9;stroke-width:0.264583"
         d="m 91.914019,170.07544 c 0.181901,-0.0734 0.479557,-0.0734 0.661458,0 0.181901,0.0734 0.03307,0.13345 -0.330729,0.13345 -0.363802,0 -0.51263,-0.0601 -0.330729,-0.13345 z m 2.253993,-0.008 c 0.257432,-0.0671 0.614619,-0.0627 0.79375,0.01 0.179131,0.0725 -0.03149,0.12737 -0.468056,0.12197 -0.436562,-0.005 -0.583126,-0.0647 -0.325694,-0.13177 z m -1.460243,-10.58671 c 0.327421,-0.0631 0.863203,-0.0631 1.190625,0 0.327421,0.0631 0.05953,0.11466 -0.595313,0.11466 -0.654844,0 -0.922734,-0.0516 -0.595312,-0.11466 z m 0.810286,-39.9461 c 0.190995,-0.0764 0.419198,-0.067 0.507119,0.0209 0.08792,0.0879 -0.06835,0.15045 -0.347266,0.13897 -0.308226,-0.0127 -0.370919,-0.0754 -0.159853,-0.15986 z"
         id="path297" /><path
         style="fill:#bee3f9;stroke-width:0.264583"
         d="m 92.712507,173.23392 c 0.475549,-0.0589 1.189924,-0.0577 1.5875,0.003 0.397576,0.0604 0.0085,0.10856 -0.864634,0.10707 -0.873125,-0.002 -1.198415,-0.0509 -0.722866,-0.10976 z m 14.634383,-3.66676 c 0.0127,-0.30822 0.0754,-0.37092 0.15985,-0.15985 0.0764,0.19099 0.067,0.4192 -0.0209,0.50712 -0.0879,0.0879 -0.15045,-0.0684 -0.13896,-0.34727 z m -14.374538,-6.90005 c 0.181901,-0.0734 0.479557,-0.0734 0.661458,0 0.181901,0.0734 0.03307,0.13345 -0.330729,0.13345 -0.363802,0 -0.51263,-0.0601 -0.330729,-0.13345 z M 66.886525,157.0215 c 0,-0.3638 0.06005,-0.51263 0.133452,-0.33073 0.0734,0.1819 0.0734,0.47956 0,0.66146 -0.0734,0.1819 -0.133452,0.0331 -0.133452,-0.33073 z m 2.940703,-10.58333 c 0,-0.65485 0.0516,-0.92274 0.114662,-0.59531 0.06306,0.32742 0.06306,0.8632 0,1.19062 -0.06306,0.32742 -0.114662,0.0595 -0.114662,-0.59531 z m 36.766402,0 c 0,-0.50932 0.0544,-0.71768 0.121,-0.46302 0.0666,0.25466 0.0666,0.67138 0,0.92604 -0.0666,0.25466 -0.121,0.0463 -0.121,-0.46302 z m -17.502993,0.11024 c 0.0127,-0.30822 0.07539,-0.37092 0.15985,-0.15985 0.07643,0.19099 0.06703,0.4192 -0.02088,0.50712 -0.08792,0.0879 -0.150453,-0.0684 -0.138965,-0.34727 z m 20.637503,0 c 0.0127,-0.30822 0.0754,-0.37092 0.15985,-0.15985 0.0764,0.19099 0.067,0.4192 -0.0209,0.50712 -0.0879,0.0879 -0.15045,-0.0684 -0.13896,-0.34727 z m 10.31875,-2.11666 c 0.0127,-0.30823 0.0754,-0.37092 0.15985,-0.15986 0.0764,0.191 0.067,0.4192 -0.0209,0.50712 -0.0879,0.0879 -0.15045,-0.0683 -0.13896,-0.34726 z m -37.112168,-17.4889 c 0.190995,-0.0764 0.419198,-0.067 0.507119,0.0209 0.08792,0.0879 -0.06835,0.15046 -0.347266,0.13897 -0.308226,-0.0127 -0.370919,-0.0754 -0.159853,-0.15985 z m 10.17356,-4.24246 c 0.402182,-0.0608 0.997495,-0.0592 1.322916,0.004 0.325422,0.0628 -0.0036,0.11256 -0.731242,0.11058 -0.727604,-0.002 -0.993857,-0.0534 -0.591674,-0.11419 z"
         id="path295" /><path
         style="fill:#dcdcdc;stroke-width:0.264583"
         d="m 261.43534,147.23192 c 0,-6.6212 0.0344,-9.32987 0.0763,-6.01927 0.042,3.3106 0.042,8.72794 0,12.03854 -0.042,3.3106 -0.0763,0.60193 -0.0763,-6.01927 z"
         id="path291" /><path
         style="fill:#dadada;stroke-width:0.264583"
         d="m 211.10881,147.82947 c 0.98226,-0.0509 2.58961,-0.0509 3.57187,0 0.98227,0.0509 0.1786,0.0926 -1.78593,0.0926 -1.96454,0 -2.76821,-0.0417 -1.78594,-0.0926 z"
         id="path287" /><path
         style="fill:#d0d0d0;stroke-width:0.264583"
         d="m 291.59127,151.59754 c 1.5e-4,-3.78354 0.0373,-5.29456 0.0826,-3.35782 0.0453,1.93674 0.0451,5.03237 -2.6e-4,6.87917 -0.0454,1.8468 -0.0825,0.26219 -0.0823,-3.52135 z"
         id="path279" /><path
         style="fill:#9ed6f6;stroke-width:0.264583"
         d="m 67.869333,159.4689 c -0.329108,-0.41965 -0.319749,-0.42901 0.0999,-0.0999 0.254661,0.19972 0.46302,0.40808 0.46302,0.46302 0,0.21776 -0.217272,0.0776 -0.562915,-0.36312 z m 14.552081,-1.05834 c -0.329107,-0.41964 -0.319749,-0.429 0.0999,-0.0999 0.254661,0.19972 0.46302,0.40808 0.46302,0.46302 0,0.21776 -0.217273,0.0776 -0.562917,-0.36313 z m 20.142086,-2.54729 c 0,-0.0549 0.20836,-0.2633 0.46302,-0.46302 0.41964,-0.32911 0.429,-0.31975 0.0999,0.0999 -0.34564,0.44073 -0.56291,0.58088 -0.56291,0.36312 z M 82.190581,134.69661 c 0,-0.0549 0.20836,-0.2633 0.463021,-0.46302 0.419645,-0.32911 0.429004,-0.31975 0.0999,0.0999 -0.345643,0.44073 -0.562917,0.58089 -0.562917,0.36313 z m 30.922499,-6.44854 c -0.32911,-0.41965 -0.31975,-0.42901 0.0999,-0.0999 0.44073,0.34564 0.58088,0.56292 0.36312,0.56292 -0.0549,0 -0.2633,-0.20836 -0.46302,-0.46302 z m -39.389165,0.11564 c 0,-0.0455 0.386953,-0.43249 0.859896,-0.85989 l 0.859896,-0.77711 -0.777106,0.8599 c -0.724371,0.80154 -0.942686,0.98151 -0.942686,0.7771 z m 37.942565,-1.57085 -0.50402,-0.59532 0.59531,0.50403 c 0.55944,0.47366 0.71576,0.6866 0.50403,0.6866 -0.0502,0 -0.3181,-0.26789 -0.59532,-0.59531 z"
         id="path275" /><path
         style="fill:#c2c2c2;stroke-width:0.264583"
         d="m 135.49417,149.74546 c 5e-5,-6.985 0.0342,-9.8045 0.0759,-6.26556 0.0417,3.53894 0.0417,9.25394 -10e-5,12.7 -0.0417,3.44606 -0.0759,0.55056 -0.0758,-6.43444 z"
         id="path263" /><path
         style="fill:#7fc9f3;stroke-width:0.264583"
         d="m 116.27222,132.4991 c 0.191,-0.0764 0.4192,-0.067 0.50712,0.0209 0.0879,0.0879 -0.0684,0.15046 -0.34727,0.13897 -0.30822,-0.0127 -0.37091,-0.0754 -0.15985,-0.15985 z m -14.03945,-0.52366 c 0.1819,-0.0734 0.47956,-0.0734 0.66146,0 0.1819,0.0734 0.0331,0.13345 -0.33073,0.13345 -0.3638,0 -0.51263,-0.0601 -0.33073,-0.13345 z m -9.525001,-1.86358 c 0.327421,-0.0631 0.863203,-0.0631 1.190625,0 0.327421,0.0631 0.05953,0.11466 -0.595313,0.11466 -0.654844,0 -0.922734,-0.0516 -0.595312,-0.11466 z"
         id="path259" /><path
         style="fill:#7ec9f3;stroke-width:0.264583"
         d="m 70.218186,160.55044 c 0.181901,-0.0734 0.479557,-0.0734 0.661458,0 0.181901,0.0734 0.03307,0.13345 -0.330729,0.13345 -0.363802,0 -0.51263,-0.0601 -0.330729,-0.13345 z m 3.812089,-3.52894 c 0,-0.3638 0.06005,-0.51263 0.133452,-0.33073 0.0734,0.1819 0.0734,0.47956 0,0.66146 -0.0734,0.1819 -0.133452,0.0331 -0.133452,-0.33073 z m -4.233334,-8.99583 c 0,-0.3638 0.06005,-0.51263 0.133452,-0.33073 0.0734,0.1819 0.0734,0.47956 0,0.66146 -0.0734,0.1819 -0.133452,0.0331 -0.133452,-0.33073 z m 50.313739,-1.5875 c 0,-0.94589 0.048,-1.33284 0.10672,-0.8599 0.0587,0.47295 0.0587,1.24685 0,1.71979 -0.0587,0.47295 -0.10672,0.086 -0.10672,-0.85989 z m -22.532491,0 c 0,-0.3638 0.06006,-0.51263 0.133454,-0.33073 0.0734,0.1819 0.0734,0.47956 0,0.66146 -0.0734,0.1819 -0.133454,0.0331 -0.133454,-0.33073 z m -27.802136,-1.74184 c 0.01269,-0.30823 0.07539,-0.37092 0.159853,-0.15985 0.07643,0.19099 0.06703,0.41919 -0.02089,0.50711 -0.08792,0.0879 -0.150453,-0.0684 -0.138965,-0.34726 z M 82.49694,144.3215 c 0,-0.3638 0.06006,-0.51263 0.133453,-0.33073 0.0734,0.1819 0.0734,0.47956 0,0.66146 -0.0734,0.1819 -0.133453,0.0331 -0.133453,-0.33073 z m 9.169032,-21.61199 c 0.190995,-0.0764 0.419198,-0.067 0.507119,0.0209 0.08792,0.0879 -0.06835,0.15045 -0.347266,0.13897 -0.308226,-0.0127 -0.370919,-0.0754 -0.159853,-0.15986 z"
         id="path257" /><path
         style="fill:#b6b6b6;stroke-width:0.264583"
         d="m 281.80405,151.06838 c -1.1e-4,-4.51115 0.036,-6.39381 0.0802,-4.1837 0.0442,2.21011 0.0443,5.90105 2e-4,8.20208 -0.0441,2.30104 -0.0803,0.49276 -0.0804,-4.01838 z"
         id="path251" /><path
         style="fill:#b0b0b0;stroke-width:0.264583"
         d="m 301.91239,151.06838 c -1.1e-4,-4.51115 0.036,-6.39381 0.0802,-4.1837 0.0442,2.21011 0.0443,5.90105 2e-4,8.20208 -0.0441,2.30104 -0.0803,0.49276 -0.0804,-4.01838 z"
         id="path243" /><path
         style="fill:#5fbcf1;stroke-width:0.264583"
         d="m 84.022638,155.76473 -0.641432,-0.7276 0.727604,0.64143 c 0.680056,0.59952 0.84894,0.81377 0.641432,0.81377 -0.04739,0 -0.374814,-0.32742 -0.727604,-0.7276 z"
         id="path241" /><path
         style="fill:#5ebbf1;stroke-width:0.264583"
         d="m 104.94475,157.68296 c 0.34177,-0.3638 0.68094,-0.66146 0.7537,-0.66146 0.0728,0 -0.14734,0.29766 -0.48912,0.66146 -0.34177,0.3638 -0.68094,0.66146 -0.7537,0.66146 -0.0728,0 0.14734,-0.29766 0.48912,-0.66146 z M 84.174956,136.91317 c 0.26339,-0.29104 0.538422,-0.52917 0.611183,-0.52917 0.07276,0 -0.08321,0.23813 -0.346599,0.52917 -0.26339,0.29104 -0.538422,0.52917 -0.611183,0.52917 -0.07276,0 0.08321,-0.23813 0.346599,-0.52917 z m 25.912524,-7.47448 -0.77711,-0.8599 0.8599,0.77711 c 0.80154,0.72437 0.98151,0.94269 0.7771,0.94269 -0.0455,0 -0.43248,-0.38696 -0.85989,-0.8599 z"
         id="path239" /><path
         style="fill:#a6a6a6;stroke-width:0.264583"
         d="m 144.47795,157.41838 c 2.5e-4,-2.7649 0.0395,-3.86004 0.0871,-2.43366 0.0477,1.42639 0.0474,3.68858 -5.3e-4,5.02709 -0.0479,1.3385 -0.0869,0.17146 -0.0867,-2.59343 z m 186.00207,0 c 2.7e-4,-2.7649 0.0395,-3.86004 0.0871,-2.43366 0.0477,1.42639 0.0475,3.68858 0,5.02709 -0.0479,1.3385 -0.0869,0.17146 -0.0867,-2.59343 z"
         id="path235" /><path
         style="fill:#a2a2a2;stroke-width:0.264583"
         d="m 204.815,149.74546 c 5e-5,-6.985 0.0342,-9.8045 0.0759,-6.26556 0.0417,3.53894 0.0417,9.25394 -10e-5,12.7 -0.0417,3.44606 -0.0759,0.55056 -0.0758,-6.43444 z"
         id="path227" /><path
         style="fill:#3eaeee;stroke-width:0.264583"
         d="m 103.55569,172.98586 c 0.1819,-0.0734 0.47955,-0.0734 0.66145,0 0.1819,0.0734 0.0331,0.13345 -0.33073,0.13345 -0.3638,0 -0.51263,-0.0601 -0.33072,-0.13345 z M 78.965972,147.58035 c 0.190996,-0.0764 0.419199,-0.067 0.507118,0.0209 0.08792,0.0879 -0.06835,0.15045 -0.347265,0.13897 -0.308225,-0.0127 -0.37092,-0.0754 -0.159853,-0.15985 z m 38.201188,-1.00989 c 0.005,-0.43656 0.0647,-0.58313 0.13177,-0.32569 0.0671,0.25743 0.0627,0.61462 -0.01,0.79375 -0.0725,0.17913 -0.12736,-0.0315 -0.12197,-0.46806 z m -50.301524,-2.4033 c 0.0127,-0.30822 0.07539,-0.37092 0.159853,-0.15985 0.07643,0.19099 0.06703,0.4192 -0.02089,0.50712 -0.08792,0.0879 -0.150453,-0.0683 -0.138963,-0.34727 z m 46.058384,-8.04774 c 0,-0.3638 0.0601,-0.51263 0.13346,-0.33073 0.0734,0.1819 0.0734,0.47956 0,0.66146 -0.0734,0.1819 -0.13346,0.0331 -0.13346,-0.33073 z M 79.565636,123.26508 c 0.0127,-0.30823 0.07539,-0.37092 0.159853,-0.15985 0.07643,0.19099 0.06703,0.4192 -0.02089,0.50711 -0.08792,0.0879 -0.150453,-0.0684 -0.138965,-0.34726 z"
         id="path225" /><path
         style="fill:#2fa8ed;stroke-width:0.264583"
         d="m 110.23641,163.23921 c 0.34178,-0.3638 0.68094,-0.66146 0.7537,-0.66146 0.0728,0 -0.14734,0.29766 -0.48911,0.66146 -0.34178,0.3638 -0.68094,0.66146 -0.7537,0.66146 -0.0728,0 0.14734,-0.29766 0.48911,-0.66146 z"
         id="path223" /><path
         style="fill:#2ea7ed;stroke-width:0.264583"
         d="m 75.277666,166.08348 c -0.329108,-0.41964 -0.319749,-0.429 0.0999,-0.0999 0.254661,0.19973 0.46302,0.40808 0.46302,0.46303 0,0.21776 -0.217272,0.0776 -0.562915,-0.36313 z m 0.298332,-35.35562 c 0,-0.0549 0.20836,-0.2633 0.463021,-0.46302 0.419644,-0.32911 0.429002,-0.31975 0.0999,0.0999 -0.345644,0.44073 -0.562916,0.58089 -0.562916,0.36313 z"
         id="path221" /><path
         style="fill:#8e8e8e;stroke-width:0.264583"
         d="m 156.21476,142.80451 c 0.62231,-0.0559 1.57481,-0.0551 2.11667,0.002 0.54185,0.0568 0.0327,0.10258 -1.13148,0.10162 -1.16416,-0.001 -1.6075,-0.0475 -0.98519,-0.10337 z m 64.29375,0 c 0.62231,-0.0559 1.57481,-0.0551 2.11667,0.002 0.54185,0.0568 0.0327,0.10258 -1.13148,0.10162 -1.16416,-0.001 -1.6075,-0.0475 -0.98519,-0.10337 z m 11.90625,0 c 0.62231,-0.0559 1.57481,-0.0551 2.11667,0.002 0.54185,0.0568 0.0327,0.10258 -1.13148,0.10162 -1.16416,-0.001 -1.6075,-0.0475 -0.98519,-0.10337 z m 35.18958,0 c 0.62231,-0.0559 1.57481,-0.0551 2.11667,0.002 0.54185,0.0568 0.0327,0.10258 -1.13147,0.10162 -1.16417,-0.001 -1.60751,-0.0475 -0.9852,-0.10337 z m 11.1125,0 c 0.62231,-0.0559 1.57481,-0.0551 2.11667,0.002 0.54185,0.0568 0.0327,0.10258 -1.13147,0.10162 -1.16417,-0.001 -1.60751,-0.0475 -0.9852,-0.10337 z m 13.75134,0.003 c 0.47294,-0.0587 1.24685,-0.0587 1.71979,0 0.47295,0.0587 0.086,0.10671 -0.85989,0.10671 -0.94589,0 -1.33284,-0.048 -0.8599,-0.10671 z m 6.35699,-0.003 c 0.62231,-0.0559 1.57481,-0.0551 2.11667,0.002 0.54186,0.0568 0.0327,0.10258 -1.13147,0.10162 -1.16417,-0.001 -1.60751,-0.0475 -0.9852,-0.10337 z"
         id="path219" /><path
         style="fill:#0f9aea;stroke-width:0.264583"
         d="m 108.9135,164.59452 c 0,-0.0549 0.20836,-0.2633 0.46302,-0.46302 0.41964,-0.32911 0.429,-0.31975 0.0999,0.0999 -0.34564,0.44073 -0.56291,0.58088 -0.56291,0.36312 z m -32.423909,-1.28916 -1.045884,-1.12448 1.124479,1.04588 c 0.618463,0.57524 1.124479,1.08125 1.124479,1.12448 0,0.20018 -0.230413,-1.3e-4 -1.203074,-1.04588 z"
         id="path217" /><path
         style="fill:#868686;stroke-width:0.264583"
         d="m 291.56281,141.01421 c 10e-4,-1.01865 0.049,-1.40294 0.10628,-0.854 0.0573,0.54895 0.0563,1.38239 -0.002,1.85209 -0.0584,0.4697 -0.10531,0.0206 -0.10414,-0.99809 z"
         id="path215" /><path
         style="fill:#0e9aea;stroke-width:0.264583"
         d="m 112.0885,165.35588 c 0.49365,-0.50933 0.95708,-0.92605 1.02984,-0.92605 0.0728,0 -0.27161,0.41672 -0.76526,0.92605 -0.49365,0.50932 -0.95708,0.92604 -1.02984,0.92604 -0.0728,0 0.2716,-0.41672 0.76526,-0.92604 z m -37.604584,-0.0661 c -0.329108,-0.41964 -0.319749,-0.429 0.0999,-0.0999 0.254661,0.19973 0.463021,0.40808 0.463021,0.46303 0,0.21776 -0.217273,0.0776 -0.562916,-0.36313 z m 6.648332,-18.42229 c 0,-0.0549 0.208359,-0.2633 0.463021,-0.46302 0.419645,-0.32911 0.429003,-0.31975 0.0999,0.0999 -0.345644,0.44073 -0.562917,0.58089 -0.562917,0.36313 z"
         id="path213" /><path
         style="fill:#828282;stroke-width:0.264583"
         d="m 209.29829,155.16942 c 0,-2.4011 0.0401,-3.38336 0.0891,-2.18281 0.049,1.20054 0.049,3.16507 0,4.36562 -0.049,1.20055 -0.0891,0.21828 -0.0891,-2.18281 z m -0.002,-11.24479 c 2.6e-4,-2.18282 0.0414,-3.04058 0.0911,-1.90614 0.0497,1.13444 0.0494,2.92037 -7.9e-4,3.96875 -0.0501,1.04838 -0.0908,0.1202 -0.0904,-2.06261 z"
         id="path211" /><path
         style="fill:#808080;stroke-width:0.264583"
         d="m 140.25407,152.65588 c 8e-5,-5.38427 0.0354,-7.54938 0.0784,-4.81135 0.043,2.73804 0.043,7.14335 -1.5e-4,9.78959 -0.0431,2.64624 -0.0783,0.40603 -0.0782,-4.97824 z m 186.00209,0 c 8e-5,-5.38427 0.0353,-7.54938 0.0784,-4.81135 0.043,2.73804 0.043,7.14335 -1.6e-4,9.78959 -0.0431,2.64624 -0.0784,0.40603 -0.0782,-4.97824 z"
         id="path209" /><path
         style="fill:#0093e9;stroke-width:0.264583"
         d="m 90.524956,173.00079 c -4.108437,-0.6061 -7.999304,-1.99179 -11.207672,-3.99148 -1.974029,-1.23035 -5.658313,-4.50731 -6.678691,-5.94029 l -0.512483,-0.71972 1.115212,-0.77257 1.115211,-0.77257 1.12747,1.38408 c 2.924468,3.5901 8.222919,6.65086 13.286334,7.67515 3.819089,0.77256 11.676493,0.1779 11.676493,-0.8837 0,-0.87432 1.10073,-2.14103 2.23783,-2.57529 1.44072,-0.55022 2.70341,-0.21846 3.70672,0.9739 0.90941,1.08078 1.08717,1.97482 0.64492,3.24368 -0.69169,1.98456 -3.1974,2.90154 -5.00726,1.83243 -0.70064,-0.41388 -0.88051,-0.41266 -2.818948,0.0191 -2.02579,0.4512 -7.108992,0.75981 -8.685136,0.52729 z m 14.366874,-2.53846 c 0.48325,-0.48324 0.3798,-1.39618 -0.21968,-1.9387 -1.15587,-1.04605 -2.83114,0.66998 -1.83079,1.87533 0.38378,0.46242 1.61342,0.50043 2.05047,0.0634 z m 3.67241,-3.67538 -0.73962,-1.02895 2.09042,-2.05314 c 3.17677,-3.12013 4.96046,-5.99929 6.2487,-10.08642 1.22832,-3.89705 1.39548,-8.91823 0.42466,-12.75669 -0.25491,-1.00786 -0.45049,-1.26295 -1.16696,-1.52203 -1.40014,-0.5063 -2.0828,-1.43805 -2.21253,-3.01983 -0.0935,-1.13989 -0.01,-1.52344 0.46444,-2.12399 1.86894,-2.36757 5.2643,-1.72405 6.12886,1.16161 0.25324,0.84522 0.21281,1.14667 -0.29417,2.19397 -0.5748,1.18737 -0.57818,1.25057 -0.15323,2.8676 0.61164,2.32746 0.82403,7.37054 0.41731,9.90901 -0.63168,3.94259 -2.06966,7.67372 -4.21116,10.92674 -1.00784,1.53094 -4.4339,5.26283 -5.58221,6.08049 l -0.67489,0.48057 z m 8.93857,-29.86312 c 0.65306,-0.72163 0.35329,-1.79962 -0.5645,-2.02997 -0.90865,-0.22805 -1.52132,0.17461 -1.62779,1.06981 -0.16537,1.39052 1.24414,2.00785 2.19229,0.96016 z m -20.230979,25.78151 c -0.49648,-0.28733 -1.189392,-0.34493 -2.778125,-0.23091 -6.007965,0.43117 -12.274417,-3.00922 -14.992319,-8.23105 -1.02654,-1.97227 -1.896731,-4.55014 -1.594317,-4.72305 0.100358,-0.0574 0.733797,-0.18419 1.407642,-0.2818 1.223102,-0.17717 1.225449,-0.176 1.389049,0.6939 0.338201,1.7983 1.738815,4.21506 3.413159,5.88941 2.582407,2.58241 5.613879,3.84549 9.229368,3.84549 h 1.784114 l 0.505838,-1.14353 c 0.99899,-2.25838 3.604975,-2.66137 5.30442,-0.82028 0.81442,0.88231 0.88004,1.07592 0.76618,2.26081 -0.13968,1.45371 -0.69942,2.24059 -1.979115,2.78223 -1.068588,0.45228 -1.619165,0.44305 -2.455894,-0.0412 z m 2.399162,-2.27772 c 0.461647,-0.86259 -0.07333,-1.81862 -1.017656,-1.81862 -0.886653,0 -1.381506,0.42648 -1.381506,1.19063 0,0.76033 0.493866,1.19062 1.366525,1.19062 0.47524,0 0.837018,-0.19711 1.032637,-0.56263 z m -30.84187,-0.4924 c -0.924226,-0.60824 -1.719791,-1.95601 -1.719791,-2.91351 0,-0.36823 0.226861,-1.09278 0.504135,-1.61011 0.497216,-0.9277 0.49682,-0.96941 -0.02883,-3.03879 -0.827091,-3.25609 -0.768557,-8.9258 0.127151,-12.31609 1.427281,-5.40234 4.503011,-10.40855 8.362571,-13.61134 l 1.424402,-1.18202 0.760187,1.0337 0.760187,1.03369 -2.316881,2.35755 c -5.693156,5.79308 -7.992836,13.30686 -6.523308,21.31369 l 0.424856,2.31486 1.156125,0.51141 c 2.044242,0.90427 2.817563,3.15006 1.710117,4.96633 -0.985144,1.61569 -3.121301,2.14071 -4.64092,1.14063 z m 2.725209,-1.9083 c 0.174625,-0.17463 0.3175,-0.62706 0.3175,-1.00542 0,-0.84366 -0.443655,-1.32292 -1.224643,-1.32292 -0.755413,0 -1.421191,0.66578 -1.421191,1.4212 0,0.78098 0.479257,1.22464 1.322917,1.22464 0.378354,0 0.830792,-0.14288 1.005417,-0.3175 z m 31.565258,-0.44225 -0.87796,-1.10851 1.19701,-1.2797 c 3.71269,-3.96917 4.43628,-10.55964 1.66593,-15.17338 -0.77571,-1.29187 -0.90902,-1.39187 -1.88632,-1.41482 -1.75992,-0.0413 -1.90913,-0.0841 -2.74338,-0.78606 -2.289568,-1.92654 -0.902376,-5.67153 2.10081,-5.67153 1.67899,0 3.16282,1.49077 3.16282,3.17763 0,0.52284 0.25932,1.15521 0.67755,1.65225 1.62137,1.92689 2.89965,5.34326 3.17331,8.48107 0.33279,3.81572 -1.37511,8.59161 -4.17368,11.67108 l -1.41813,1.56048 z m 0.35105,-21.35186 c 0.55741,-0.55741 0.52365,-1.06385 -0.11339,-1.70089 -0.63699,-0.63699 -0.77188,-0.64734 -1.52863,-0.11729 -0.63974,0.44809 -0.77571,1.41129 -0.27054,1.91646 0.44523,0.44522 1.4191,0.39518 1.91256,-0.0983 z m -10.834552,14.18627 c -1.269905,-0.29412 -2.175203,-1.02708 -2.759596,-2.23428 -0.679567,-1.40379 -0.681392,-2.09231 -0.0092,-3.44903 0.738277,-1.48999 1.663941,-2.08768 3.423716,-2.21065 1.210292,-0.0846 1.62469,0.006 2.366388,0.5162 2.508465,1.72612 2.436858,5.42368 -0.133064,6.871 -1.018878,0.57381 -1.917808,0.73153 -2.888295,0.50676 z m 1.851146,-2.75283 c 1.096254,-0.80161 0.369906,-2.81558 -1.015452,-2.81558 -0.774422,0 -1.491618,0.77393 -1.491618,1.60961 0,1.35768 1.387094,2.02491 2.50707,1.20597 z m -16.69188,-0.42906 c -0.749868,-0.30298 -1.614556,-1.43984 -1.825452,-2.40005 -0.225548,-1.02691 0.540866,-2.59865 1.603106,-3.2876 0.498553,-0.32336 1.122876,-1.18188 1.635452,-2.24896 1.794642,-3.73609 5.366766,-6.91187 9.19983,-8.17907 2.295731,-0.75897 5.598464,-0.99969 7.860368,-0.57289 2.391603,0.45126 2.421546,0.48238 1.877168,1.95119 -0.383606,1.03502 -0.5452,1.21042 -0.986176,1.07046 -1.20964,-0.38392 -3.845777,-0.537 -5.573537,-0.32365 -3.88574,0.47983 -8.019992,3.39007 -9.691235,6.82198 l -0.692579,1.42221 0.626433,0.9231 c 0.399177,0.58822 0.626433,1.30494 0.626433,1.97564 0,0.86987 -0.178274,1.23082 -1.027205,2.07975 -0.850498,0.85049 -1.203246,1.02432 -2.050522,1.01043 -0.562823,-0.009 -1.274761,-0.11837 -1.582084,-0.24254 z m 2.435183,-2.25423 c 0.401482,-0.61274 0.401482,-0.71018 0,-1.32292 -0.736168,-1.12353 -2.273289,-0.74272 -2.273289,0.56319 0,1.36219 1.541082,1.87722 2.273289,0.75973 z M 110.501,129.76741 c -1.23693,-1.25282 -2.96274,-2.74311 -3.83514,-3.31176 -5.02384,-3.27465 -11.531537,-4.53135 -17.650071,-3.4084 -2.247194,0.41244 -2.310043,0.44425 -2.597349,1.3148 -0.161938,0.49067 -0.647176,1.18895 -1.078309,1.55172 -2.299687,1.93506 -5.527184,0.34524 -5.529811,-2.72392 -8.46e-4,-0.99023 0.146009,-1.3026 1.026216,-2.18281 0.880441,-0.88044 1.192319,-1.027 2.182813,-1.02581 0.644731,7.7e-4 1.503161,0.21246 1.94178,0.47883 0.759785,0.4614 0.853035,0.46039 2.778125,-0.0302 1.504553,-0.38344 2.930675,-0.50916 5.82841,-0.51379 3.309186,-0.005 4.200094,0.0896 6.482296,0.69012 3.41863,0.89962 7.38412,2.8808 10.06903,5.03054 2.01245,1.61132 4.62207,4.34927 4.60969,4.83638 -0.003,0.12231 -0.44959,0.52609 -0.99219,0.89728 l -0.98653,0.6749 z m -26.318794,-5.56225 c 0.696751,-0.7699 0.266496,-1.94365 -0.755724,-2.06163 -0.956969,-0.11045 -1.500484,0.35868 -1.500484,1.29514 0,1.25102 1.390277,1.72333 2.256208,0.76649 z"
         id="path207" /><path
         style="fill:#7a7a7a;stroke-width:0.264583"
         d="m 211.10881,150.73988 c 0.98226,-0.0509 2.58961,-0.0509 3.57187,0 0.98227,0.0509 0.1786,0.0926 -1.78593,0.0926 -1.96454,0 -2.76821,-0.0417 -1.78594,-0.0926 z"
         id="path205" /><path
         style="fill:#767676;stroke-width:0.264583"
         d="m 297.67945,151.33296 c 1.1e-4,-4.65667 0.0361,-6.5244 0.08,-4.15053 0.0439,2.37388 0.0438,6.18388 -1.9e-4,8.46667 -0.044,2.28279 -0.0799,0.34053 -0.0798,-4.31614 z"
         id="path203" /><path
         style="fill:#6e6e6e;stroke-width:0.264583"
         d="m 277.56779,149.48088 c -1.6e-4,-3.63802 0.0371,-5.163 0.0828,-3.38884 0.0457,1.77416 0.0458,4.75072 2.6e-4,6.61458 -0.0455,1.86386 -0.0829,0.41228 -0.0831,-3.22574 z m -61.15418,-0.13229 c 0,-0.80037 0.0496,-1.12779 0.11023,-0.72761 0.0606,0.40018 0.0606,1.05503 0,1.45521 -0.0606,0.40018 -0.11023,0.0728 -0.11023,-0.7276 z"
         id="path201" /><path
         style="fill:#626262;stroke-width:0.264583"
         d="m 130.99625,149.74546 c 5e-5,-6.985 0.0342,-9.8045 0.0759,-6.26556 0.0417,3.53894 0.0417,9.25394 -1e-4,12.7 -0.0418,3.44606 -0.0759,0.55056 -0.0758,-6.43444 z"
         id="path199" /><path
         style="fill:#606060;stroke-width:0.264583"
         d="m 211.37339,139.8915 c 1.12779,-0.0496 2.97326,-0.0496 4.10104,0 1.12779,0.0496 0.20505,0.0902 -2.05052,0.0902 -2.25557,0 -3.17831,-0.0406 -2.05052,-0.0902 z"
         id="path197" /><path
         style="fill:#565656;stroke-width:0.264583"
         d="m 211.50568,159.47049 c 1.20055,-0.049 3.16508,-0.049 4.36563,0 1.20054,0.049 0.21828,0.0891 -2.18281,0.0891 -2.4011,0 -3.38336,-0.0401 -2.18282,-0.0891 z"
         id="path195" /><path
         style="fill:#4c4c4c;stroke-width:0.264583"
         d="m 290.6161,139.11919 c 0.1819,-0.0734 0.47955,-0.0734 0.66146,0 0.1819,0.0734 0.0331,0.13345 -0.33073,0.13345 -0.36381,0 -0.51263,-0.06 -0.33073,-0.13345 z"
         id="path193" /><path
         style="fill:#494949;stroke-width:0.264583"
         d="m 257.20201,147.76109 c 0,-6.6212 0.0344,-9.32987 0.0763,-6.01928 0.042,3.3106 0.042,8.72795 0,12.03855 -0.042,3.31059 -0.0763,0.60192 -0.0763,-6.01927 z"
         id="path191" /><path
         style="fill:#484848;stroke-width:0.264583"
         d="m 294.97696,143.79234 c 0,-0.50933 0.0544,-0.71769 0.121,-0.46303 0.0666,0.25467 0.0666,0.67138 0,0.92605 -0.0666,0.25466 -0.121,0.0463 -0.121,-0.46302 z"
         id="path189" /><path
         style="fill:#303030;stroke-width:0.264583"
         d="m 287.35897,152.12671 c 1.4e-4,-4.07458 0.0369,-5.70449 0.0816,-3.62201 0.0448,2.08247 0.0446,5.41622 -2.4e-4,7.40833 -0.0449,1.99211 -0.0815,0.28826 -0.0814,-3.78632 z m -128.057,-1.05833 c -1.1e-4,-4.51115 0.036,-6.39381 0.0802,-4.1837 0.0442,2.21011 0.0443,5.90105 2e-4,8.20208 -0.0441,2.30104 -0.0803,0.49276 -0.0804,-4.01838 z m 111.38269,-3.04271 c 0,-2.83766 0.0389,-3.99852 0.0865,-2.57969 0.0476,1.41883 0.0476,3.74055 0,5.15938 -0.0476,1.41882 -0.0865,0.25796 -0.0865,-2.57969 z"
         id="path187" /><path
         style="fill:#2e2e2e;stroke-width:0.264583"
         d="m 341.32794,154.24338 c 2.6e-4,-2.7649 0.0395,-3.86004 0.0871,-2.43366 0.0477,1.42639 0.0475,3.68858 0,5.02709 -0.0479,1.33851 -0.0869,0.17146 -0.0867,-2.59343 z"
         id="path185" /><path
         style="fill:#1c1c1c;stroke-width:0.264583"
         d="m 217.47195,138.50067 c 0,-0.80037 0.0496,-1.12779 0.11022,-0.72761 0.0606,0.40019 0.0606,1.05503 0,1.45521 -0.0606,0.40019 -0.11022,0.0728 -0.11022,-0.7276 z"
         id="path183" /><path
         style="fill:#000000;stroke-width:0.264583"
         d="m 168.57704,162.93286 c -3.67432,-0.53836 -5.58559,-2.65585 -4.48695,-4.97106 0.4982,-1.04989 1.92724,-1.67123 3.14229,-1.36627 0.62858,0.15776 0.67392,0.25853 0.5277,1.17294 -0.25668,1.60518 0.4082,2.85312 1.73129,3.24953 2.28583,0.68485 4.03783,-0.50311 4.08702,-2.77126 0.0407,-1.87577 -0.61659,-2.53954 -5.64532,-5.70109 -2.81099,-1.76725 -3.82648,-3.65856 -3.34432,-6.22867 0.55205,-2.94268 5.05951,-4.78338 9.14831,-3.73588 2.52517,0.64692 3.95519,2.3497 3.51161,4.18139 -0.34171,1.41104 -2.10044,2.37273 -3.517,1.92313 -0.48272,-0.15321 -0.553,-0.31863 -0.41933,-0.987 0.22154,-1.1077 -0.26738,-2.7463 -0.9653,-3.23514 -0.93605,-0.65563 -2.64092,-0.52312 -3.49881,0.27194 -0.65644,0.60837 -0.71902,0.81478 -0.60545,1.99675 0.16305,1.69689 0.83945,2.40976 4.14723,4.37084 3.19853,1.8963 4.35528,3.06477 4.77786,4.82628 0.69501,2.89711 -0.98119,5.69053 -3.96062,6.60047 -1.14079,0.3484 -3.56383,0.55935 -4.63021,0.4031 z m 16.93333,0 c -3.67431,-0.53836 -5.58558,-2.65585 -4.48695,-4.97106 0.49821,-1.04989 1.92724,-1.67123 3.1423,-1.36627 0.62857,0.15776 0.67391,0.25853 0.52769,1.17294 -0.25668,1.60518 0.4082,2.85312 1.73129,3.24953 2.28584,0.68485 4.03783,-0.50311 4.08703,-2.77126 0.0407,-1.87577 -0.61659,-2.53954 -5.64533,-5.70109 -2.81098,-1.76725 -3.82647,-3.65856 -3.34432,-6.22867 0.55205,-2.94268 5.05951,-4.78338 9.14831,-3.73588 2.52517,0.64692 3.9552,2.3497 3.51161,4.18139 -0.34171,1.41104 -2.10044,2.37273 -3.517,1.92313 -0.48272,-0.15321 -0.553,-0.31863 -0.41932,-0.987 0.22154,-1.1077 -0.26739,-2.7463 -0.96531,-3.23514 -0.93605,-0.65563 -2.64092,-0.52312 -3.49881,0.27194 -0.65643,0.60837 -0.71902,0.81478 -0.60545,1.99675 0.16305,1.69689 0.83945,2.40976 4.14723,4.37084 3.19853,1.8963 4.35528,3.06477 4.77786,4.82628 0.69501,2.89711 -0.98119,5.69053 -3.96062,6.60047 -1.14079,0.3484 -3.56383,0.55935 -4.63021,0.4031 z m 57.77403,-0.0928 c -4.25279,-0.72798 -6.43929,-4.14116 -6.43929,-10.05188 0,-6.02944 2.27675,-9.57383 6.64391,-10.34309 4.1939,-0.73874 7.50573,1.16281 8.99089,5.16228 0.76847,2.06945 0.69556,8.17149 -0.12247,10.25049 -0.67085,1.70496 -1.83809,3.28852 -2.89991,3.93426 -1.58171,0.96189 -4.13937,1.39607 -6.17313,1.04794 z m 3.8873,-2.65615 c 0.93473,-0.87813 1.44996,-2.84789 1.62307,-6.20511 0.24076,-4.66927 -0.54909,-8.16456 -2.08869,-9.24293 -0.32537,-0.2279 -1.09173,-0.41436 -1.70303,-0.41436 -1.39061,0 -2.49833,0.86497 -3.13296,2.44641 -1.01508,2.52945 -0.99904,9.54035 0.0277,12.1064 0.60575,1.51393 1.69956,2.17865 3.35091,2.03639 0.85426,-0.0736 1.47907,-0.30974 1.92301,-0.7268 z m 25.122,2.79454 c -0.14552,-0.051 -0.71361,-0.16792 -1.26243,-0.25978 -1.2715,-0.21281 -2.7803,-1.52936 -3.42629,-2.98971 -0.64122,-1.44956 -0.98991,-5.61829 -0.99551,-11.90172 l -0.004,-4.82864 h 1.95625 1.95624 l 0.12642,7.0776 c 0.0771,4.31903 0.24759,7.46415 0.43732,8.06935 0.4792,1.52861 1.30741,2.32542 2.59679,2.49836 1.57145,0.21078 2.62448,-0.29891 3.32582,-1.60975 0.55271,-1.03304 0.58554,-1.45509 0.66593,-8.56109 l 0.0846,-7.47447 h 1.96596 1.96596 v 8.61209 c 0,7.29159 0.0634,8.73471 0.4135,9.41172 0.30639,0.59248 0.33784,0.89077 0.12144,1.15152 -0.86807,1.04596 -3.26781,0.46683 -3.78918,-0.91446 -0.36595,-0.96951 -0.5278,-0.99044 -1.08483,-0.14032 -0.23714,0.36193 -0.87591,0.88207 -1.41949,1.15586 -0.95405,0.48054 -3.09045,0.89407 -3.63415,0.70344 z m 40.08438,-0.18286 c -2.72412,-0.42806 -4.70255,-2.18849 -5.74575,-5.11262 -0.36985,-1.0367 -0.46981,-2.12433 -0.46201,-5.02708 0.0124,-4.59356 0.49274,-6.09345 2.639,-8.23972 1.55912,-1.55911 2.78499,-2.03529 5.28855,-2.05426 4.93432,-0.0374 7.62931,2.84183 8.21401,8.77547 0.33904,3.44069 -0.74676,7.73108 -2.42736,9.59128 -1.58851,1.75831 -4.45229,2.54686 -7.50644,2.06693 z m 3.44824,-2.20668 c 1.49754,-0.77441 2.13021,-3.12476 2.13573,-7.93419 0.007,-5.84063 -1.11721,-8.33321 -3.75748,-8.33321 -2.87208,0 -4.17077,3.24313 -3.86159,9.64329 0.17016,3.52232 0.4422,4.75879 1.28187,5.82626 0.9591,1.21929 2.73452,1.55644 4.20147,0.79785 z m -158.36178,2.02816 c -2.08307,-0.67552 -2.10506,-0.78376 -2.19901,-10.82108 l -0.0823,-8.79739 h 1.98733 1.98732 l 0.0794,8.83616 c 0.0753,8.38497 0.10622,8.86579 0.60503,9.4166 0.51832,0.57233 0.51853,0.58566 0.0156,0.95342 -0.28054,0.20514 -0.65618,0.37298 -0.83475,0.37298 -0.17856,0 -0.48323,0.0475 -0.67703,0.10546 -0.19381,0.058 -0.5905,0.0282 -0.88154,-0.0661 z m 101.86458,5.3e-4 c -0.85171,-0.27694 -1.3571,-0.66148 -1.68117,-1.27915 -0.45535,-0.8679 -0.42891,-25.4609 0.0275,-25.60338 0.1819,-0.0568 1.07487,-0.17801 1.98438,-0.26941 l 1.65364,-0.16619 v 12.66257 c 0,10.72411 0.0595,12.74119 0.38847,13.17616 0.56417,0.74591 0.50624,0.89528 -0.51226,1.32084 -0.98758,0.41263 -1.06018,0.41882 -1.86058,0.15856 z m 30.10538,0.0416 c -0.32245,-0.0637 -0.888,-0.47439 -1.25677,-0.91265 l -0.67049,-0.7969 v -8.18178 -8.18178 h -1.4552 c -1.98864,0 -1.99682,-0.6424 -0.0213,-1.6746 0.78795,-0.41171 2.14585,-1.39397 3.01755,-2.18281 2.16264,-1.95709 2.4277,-1.91147 2.4277,0.41782 v 1.85209 h 1.71979 1.7198 v 0.79375 0.79375 h -1.7198 -1.71979 v 7.6626 c 0,7.54196 0.009,7.67111 0.57906,8.20209 0.31848,0.29671 0.67986,0.53947 0.80306,0.53947 0.34707,0 -0.28018,1.01701 -0.79287,1.28555 -0.63526,0.33274 -1.93108,0.52155 -2.63074,0.38333 z m 10.38582,-0.0541 c -0.48674,-0.1002 -1.0132,-0.50176 -1.38907,-1.0595 -0.60057,-0.89126 -0.60526,-0.96654 -0.60526,-9.72263 v -8.82441 h 1.98438 1.98437 v 8.61635 c 0,8.37815 0.0891,9.43134 0.83962,9.92396 0.32735,0.21487 -0.58048,0.94288 -1.36878,1.09764 -0.36381,0.0714 -1.01417,0.0573 -1.44526,-0.0315 z m 39.67755,0.0125 c -2.01205,-0.65424 -2.09381,-0.9829 -2.24745,-9.03561 -0.0946,-4.95541 -0.23204,-7.18329 -0.46884,-7.59744 -0.51433,-0.89954 -2.13109,-1.28424 -3.51661,-0.83675 -2.42498,0.7832 -2.88541,2.53716 -2.8911,11.01388 l -0.004,6.1515 h -1.98437 -1.98438 v -9.62422 -9.62422 l 0.82683,-0.16536 c 2.253,-0.4506 2.58355,-0.1882 2.62471,2.08359 0.0167,0.92459 0.059,0.99534 0.33433,0.55987 1.47003,-2.32497 3.00654,-3.19711 5.60684,-3.18255 1.973,0.0111 3.01011,0.39134 4.01728,1.47306 1.14368,1.22836 1.24179,1.89878 1.39345,9.52273 0.12867,6.4677 0.19915,7.37398 0.60854,7.82604 0.64053,0.70728 0.5937,0.83888 -0.45453,1.27685 -0.98755,0.41263 -1.06016,0.41882 -1.86057,0.15856 z M 131.1385,149.74546 v -12.56771 h 2.11666 2.11667 v 12.56771 12.56771 h -2.11667 -2.11666 z m 9.26041,2.94349 v -9.62422 l 0.82683,-0.16536 c 0.45475,-0.0909 1.16373,-0.16537 1.57551,-0.16537 0.78316,0 0.89869,0.26226 1.09967,2.49642 0.0696,0.77378 0.0728,0.77201 0.86167,-0.48112 0.91745,-1.45732 1.96407,-2.18545 3.49275,-2.4299 2.3558,-0.37671 4.30039,1.04787 4.51772,3.30959 0.229,2.38328 -0.80628,3.60669 -2.88392,3.40797 -0.85509,-0.0818 -0.8941,-0.13357 -0.96104,-1.27587 -0.0384,-0.65485 -0.12616,-1.44345 -0.19508,-1.75245 -0.17139,-0.76854 -1.41523,-1.26057 -2.3185,-0.91714 -1.67733,0.63772 -2.04686,2.60918 -2.04686,10.92026 v 6.30141 h -1.98437 -1.98438 z m 64.55834,-2.93879 v -12.57241 h 6.2177 6.21771 v 1.32292 1.32292 h -4.10104 -4.10104 v 4.10104 4.10104 h 3.57187 3.57188 v 1.32292 1.32291 h -3.57188 -3.57187 v 4.49792 4.49791 h 4.38012 4.38012 l -0.0806,1.25678 -0.0806,1.25677 -6.41615,0.0709 -6.41614,0.0709 z m 19.76291,12.37421 c -0.0682,-0.11444 -1.21287,-4.2562 -2.54373,-9.20391 -1.33087,-4.94771 -2.48508,-9.20938 -2.56491,-9.47037 -0.13225,-0.43233 0.037,-0.46763 1.90317,-0.39688 l 2.04833,0.0777 1.90823,8.27865 c 1.04952,4.55325 1.96661,8.33703 2.03798,8.4084 0.13379,0.13379 0.23911,-0.29552 2.61714,-10.66778 l 1.41036,-6.15156 h 1.79151 c 0.98533,0 1.7915,0.0952 1.7915,0.21151 0,0.11633 -1.23486,4.43235 -2.74414,9.59114 l -2.74414,9.37964 -2.39366,0.0758 c -1.31651,0.0417 -2.44945,-0.0179 -2.51764,-0.1323 z m -68.44625,-22.75222 c -0.21828,-0.0798 -0.66476,-0.38881 -0.99218,-0.68669 -1.40692,-1.28 -0.0774,-3.62437 2.05547,-3.62437 1.61254,0 2.64333,0.80997 2.63247,2.06853 -0.005,0.5358 -0.16316,1.17785 -0.3523,1.42679 -0.61205,0.8056 -2.26679,1.20932 -3.34346,0.81574 z m 141.90336,-0.32692 c -1.36398,-0.83169 -1.25561,-2.84598 0.19344,-3.59531 1.25018,-0.6465 2.55951,-0.50031 3.44438,0.38456 0.42538,0.42537 0.7734,0.9534 0.7734,1.1734 0,2.07108 -2.47854,3.21581 -4.41122,2.03735 z"
         id="path181" /></g></g></svg>
